<svg width="49" height="49" viewBox="0 0 49 49" fill="none" xmlns="http://www.w3.org/2000/svg">
<circle cx="24.5" cy="24.5" r="24.5" fill="#007438"/>
<path fill-rule="evenodd" clip-rule="evenodd" d="M32.6761 15.2106L23.5 15L14.3238 15.2106C12.4695 15.248 10.8975 16.5736 10.5622 18.3825C9.8126 22.427 9.8126 26.5731 10.5622 30.6176C10.8975 32.4265 12.4695 33.752 14.3238 33.7894L23.5 34L32.6761 33.7894C34.5305 33.752 36.1025 32.4265 36.4378 30.6176C37.1874 26.5731 37.1874 22.427 36.4378 18.3825C36.1025 16.5736 34.5305 15.248 32.6761 15.2106ZM34.9956 23.2334C34.9956 23.9329 34.4237 24.5 33.7183 24.5H13.2816C12.5762 24.5 12.0043 23.9329 12.0043 23.2334C12.0043 22.5338 12.5762 21.9667 13.2816 21.9667H33.7183C34.4237 21.9667 34.9956 22.5338 34.9956 23.2334Z" fill="white"/>
</svg>
