<svg width="49" height="49" viewBox="0 0 49 49" fill="none" xmlns="http://www.w3.org/2000/svg">
<circle cx="24.5" cy="24.5" r="24.5" fill="#007438"/>
<path d="M25.0139 10.9829C24.5373 10.8364 24.0278 10.8364 23.5512 10.9829L19.2815 12.2952C17.0873 12.9696 15.0035 13.9611 13.0961 15.2382C11.8837 16.0501 12.4584 17.9413 13.9175 17.9413H34.6475C36.1067 17.9413 36.6813 16.0501 35.4689 15.2382C33.5615 13.9611 31.4777 12.9696 29.2836 12.2952L25.0139 10.9829Z" fill="white"/>
<path d="M13.2 37.2463C13.2 36.654 13.6801 36.1738 14.2725 36.1738H34.2929C34.8852 36.1738 35.3654 36.654 35.3654 37.2463C35.3654 37.8387 34.8852 38.3189 34.2929 38.3189H14.2725C13.6801 38.3189 13.2 37.8387 13.2 37.2463Z" fill="white"/>
<path d="M16.0601 31.5267C16.0601 32.119 16.5402 32.5992 17.1326 32.5992C17.7249 32.5992 18.2051 32.119 18.2051 31.5267V22.9465C18.2051 22.3542 17.7249 21.874 17.1326 21.874C16.5402 21.874 16.0601 22.3542 16.0601 22.9465V31.5267Z" fill="white"/>
<path d="M30.3601 31.5267C30.3601 32.119 30.8403 32.5992 31.4326 32.5992C32.0249 32.5992 32.5052 32.119 32.5052 31.5267V22.9465C32.5052 22.3542 32.0249 21.874 31.4326 21.874C30.8403 21.874 30.3601 22.3542 30.3601 22.9465V31.5267Z" fill="white"/>
<path d="M23.0002 31.5267C23.0002 32.119 23.4804 32.5992 24.0728 32.5992C24.6651 32.5992 25.1453 32.119 25.1453 31.5267V22.9465C25.1453 22.3542 24.6651 21.874 24.0728 21.874C23.4804 21.874 23.0002 22.3542 23.0002 22.9465V31.5267Z" fill="white"/>
</svg>
