<svg width="36" height="29" viewBox="0 0 36 29" fill="none" xmlns="http://www.w3.org/2000/svg">
<path d="M8.74314 0.401206C14.897 -0.133726 21.0858 -0.133745 27.2396 0.401206L30.2047 0.658935C32.1783 0.830518 33.8688 2.00779 34.7448 3.69178C34.8567 3.9072 34.7726 4.16803 34.5663 4.29586L22.2649 11.911C19.6268 13.5442 16.2999 13.5784 13.6286 12L1.24512 4.68239C1.04505 4.56417 0.953216 4.32081 1.04339 4.10663C1.84468 2.20317 3.64617 0.84428 5.77827 0.658955L8.74314 0.401206Z" fill="#007438"/>
<path d="M1.03336 7.97824C0.727158 7.79731 0.336482 7.99202 0.300791 8.34587C-0.197331 13.2846 -0.076771 18.27 0.662471 23.186C1.05221 25.7776 3.16737 27.7646 5.77831 27.9915L8.74319 28.2493C14.8971 28.7843 21.0859 28.7843 27.2397 28.2493L30.2047 27.9915C32.8156 27.7646 34.9307 25.7776 35.3204 23.186C36.0813 18.1268 36.1868 12.9939 35.6371 7.91424C35.5984 7.55788 35.2012 7.36677 34.8964 7.55543L23.8151 14.4154C20.2456 16.625 15.7448 16.6713 12.1306 14.5358L1.03336 7.97824Z" fill="#007438"/>
</svg>
