<svg width="39" height="28" viewBox="0 0 39 28" fill="none" xmlns="http://www.w3.org/2000/svg">
<path fill-rule="evenodd" clip-rule="evenodd" d="M32.5477 0.304883L19.3769 0L6.20608 0.304883C3.54453 0.358985 1.28816 2.2776 0.806946 4.89584C-0.268982 10.7499 -0.268982 16.7509 0.806946 22.605C1.28816 25.2231 3.54452 27.1417 6.20608 27.1958L19.3769 27.5007L32.5477 27.1958C35.2094 27.1417 37.4657 25.2231 37.9469 22.605C39.0229 16.7509 39.0229 10.7499 37.9469 4.89584C37.4657 2.2776 35.2094 0.358985 32.5477 0.304883ZM35.8769 11.917C35.8769 12.9295 35.0561 13.7503 34.0436 13.7503H4.71022C3.69771 13.7503 2.87689 12.9295 2.87689 11.917C2.87689 10.9044 3.69771 10.0837 4.71022 10.0837H34.0436C35.0561 10.0837 35.8769 10.9044 35.8769 11.917Z" fill="#007438"/>
</svg>
