<svg width="36" height="41" viewBox="0 0 36 41" fill="none" xmlns="http://www.w3.org/2000/svg">
<path d="M18.693 0.608129C17.9887 0.391691 17.2358 0.391691 16.5316 0.608129L10.2226 2.54719C6.98047 3.54367 3.90141 5.0087 1.08307 6.89586C-0.708436 8.09545 0.140748 10.8899 2.2968 10.8899H32.9276C35.0837 10.8899 35.9327 8.09545 34.1413 6.89586C31.323 5.0087 28.2439 3.54367 25.0018 2.54719L18.693 0.608129Z" fill="#007438"/>
<path d="M1.23633 39.4153C1.23633 38.5401 1.94586 37.8306 2.8211 37.8306H32.4035C33.2787 37.8306 33.9882 38.5401 33.9882 39.4153C33.9882 40.2906 33.2787 41.0001 32.4035 41.0001H2.8211C1.94586 41.0001 1.23633 40.2906 1.23633 39.4153Z" fill="#007438"/>
<path d="M5.46289 30.9641C5.46289 31.8393 6.17242 32.5489 7.04766 32.5489C7.9229 32.5489 8.63243 31.8393 8.63243 30.9641V18.2859C8.63243 17.4107 7.9229 16.7012 7.04766 16.7012C6.17242 16.7012 5.46289 17.4107 5.46289 18.2859V30.9641Z" fill="#007438"/>
<path d="M26.5928 30.9641C26.5928 31.8393 27.3023 32.5489 28.1775 32.5489C29.0528 32.5489 29.7623 31.8393 29.7623 30.9641V18.2859C29.7623 17.4107 29.0528 16.7012 28.1775 16.7012C27.3023 16.7012 26.5928 17.4107 26.5928 18.2859V30.9641Z" fill="#007438"/>
<path d="M15.7168 30.9641C15.7168 31.8393 16.4264 32.5489 17.3016 32.5489C18.1768 32.5489 18.8863 31.8393 18.8863 30.9641V18.2859C18.8863 17.4107 18.1768 16.7012 17.3016 16.7012C16.4264 16.7012 15.7168 17.4107 15.7168 18.2859V30.9641Z" fill="#007438"/>
</svg>
