<svg width="287" height="19" viewBox="0 0 287 19" fill="none" xmlns="http://www.w3.org/2000/svg">
<path d="M0.74 15V0.899999H5.5C7.78 0.899999 9.54 1.50667 10.78 2.72C12.02 3.92 12.64 5.66 12.64 7.94C12.64 10.22 12.02 11.9667 10.78 13.18C9.54 14.3933 7.78 15 5.5 15H0.74ZM2.38 13.6H5.38C9.06 13.6 10.9 11.7133 10.9 7.94C10.9 4.18 9.06 2.3 5.38 2.3H2.38V13.6ZM19.4038 15.18C18.4571 15.18 17.6371 14.9733 16.9438 14.56C16.2504 14.1467 15.7104 13.5667 15.3238 12.82C14.9504 12.06 14.7638 11.1667 14.7638 10.14C14.7638 9.11333 14.9504 8.22667 15.3238 7.48C15.7104 6.72 16.2504 6.13333 16.9438 5.72C17.6371 5.30667 18.4571 5.1 19.4038 5.1C20.3371 5.1 21.1504 5.30667 21.8438 5.72C22.5504 6.13333 23.0904 6.72 23.4638 7.48C23.8504 8.22667 24.0438 9.11333 24.0438 10.14C24.0438 11.1667 23.8504 12.06 23.4638 12.82C23.0904 13.5667 22.5504 14.1467 21.8438 14.56C21.1504 14.9733 20.3371 15.18 19.4038 15.18ZM19.4038 13.88C20.3104 13.88 21.0371 13.56 21.5838 12.92C22.1304 12.2667 22.4038 11.34 22.4038 10.14C22.4038 8.92667 22.1304 8 21.5838 7.36C21.0371 6.72 20.3104 6.4 19.4038 6.4C18.4838 6.4 17.7504 6.72 17.2038 7.36C16.6704 8 16.4038 8.92667 16.4038 10.14C16.4038 11.34 16.6704 12.2667 17.2038 12.92C17.7504 13.56 18.4838 13.88 19.4038 13.88ZM26.477 15V5.28H28.057V6.94C28.377 6.32667 28.8304 5.86667 29.417 5.56C30.0037 5.25333 30.6637 5.1 31.397 5.1C33.7037 5.1 34.857 6.38 34.857 8.94V15H33.237V9.04C33.237 8.13333 33.057 7.47333 32.697 7.06C32.3504 6.63333 31.7904 6.42 31.017 6.42C30.1237 6.42 29.4104 6.7 28.877 7.26C28.357 7.80667 28.097 8.54 28.097 9.46V15H26.477ZM38.0531 5.24L37.3131 4.64C37.6065 4.33333 37.8131 4.04667 37.9331 3.78C38.0665 3.5 38.1465 3.22 38.1731 2.94H37.2331V0.899999H39.2731V2.34C39.2731 2.88667 39.1865 3.39333 39.0131 3.86C38.8398 4.32667 38.5198 4.78667 38.0531 5.24ZM45.963 15.18C44.8163 15.18 43.9563 14.88 43.383 14.28C42.8096 13.6667 42.523 12.7867 42.523 11.64V6.54H40.623V5.28H42.523V2.3H44.143V5.28H47.223V6.54H44.143V11.48C44.143 12.24 44.303 12.82 44.623 13.22C44.943 13.6067 45.463 13.8 46.183 13.8C46.3963 13.8 46.6096 13.7733 46.823 13.72C47.0363 13.6667 47.2296 13.6133 47.403 13.56L47.683 14.8C47.5096 14.8933 47.2563 14.98 46.923 15.06C46.5896 15.14 46.2696 15.18 45.963 15.18ZM54.1919 15V0.899999H55.8119V6.88C56.1319 6.29333 56.5785 5.85333 57.1519 5.56C57.7385 5.25333 58.3919 5.1 59.1119 5.1C61.4185 5.1 62.5719 6.38 62.5719 8.94V15H60.9519V9.04C60.9519 8.13333 60.7719 7.47333 60.4119 7.06C60.0652 6.63333 59.5052 6.42 58.7319 6.42C57.8385 6.42 57.1252 6.7 56.5919 7.26C56.0719 7.80667 55.8119 8.54 55.8119 9.46V15H54.1919ZM68.6191 15.18C67.9524 15.18 67.3524 15.0533 66.8191 14.8C66.2991 14.5333 65.8857 14.1733 65.5791 13.72C65.2724 13.2667 65.1191 12.76 65.1191 12.2C65.1191 11.4933 65.2991 10.9333 65.6591 10.52C66.0324 10.1067 66.6391 9.81333 67.4791 9.64C68.3324 9.45333 69.4924 9.36 70.9591 9.36H71.5991V8.74C71.5991 7.91333 71.4257 7.32 71.0791 6.96C70.7457 6.58667 70.2057 6.4 69.4591 6.4C68.8724 6.4 68.3057 6.48667 67.7591 6.66C67.2124 6.82 66.6524 7.08667 66.0791 7.46L65.5191 6.28C66.0257 5.92 66.6391 5.63333 67.3591 5.42C68.0924 5.20667 68.7924 5.1 69.4591 5.1C70.7124 5.1 71.6391 5.40667 72.2391 6.02C72.8524 6.63333 73.1591 7.58667 73.1591 8.88V15H71.6391V13.32C71.3857 13.8933 70.9924 14.3467 70.4591 14.68C69.9391 15.0133 69.3257 15.18 68.6191 15.18ZM68.8791 13.96C69.6791 13.96 70.3324 13.6867 70.8391 13.14C71.3457 12.58 71.5991 11.8733 71.5991 11.02V10.42H70.9791C69.8991 10.42 69.0457 10.4733 68.4191 10.58C67.8057 10.6733 67.3724 10.8467 67.1191 11.1C66.8791 11.34 66.7591 11.6733 66.7591 12.1C66.7591 12.6467 66.9457 13.0933 67.3191 13.44C67.7057 13.7867 68.2257 13.96 68.8791 13.96ZM78.9269 15L74.7469 5.28H76.5069L79.7269 13.16L82.9869 5.28H84.6469L80.4469 15H78.9269ZM90.6031 15.18C89.0698 15.18 87.8565 14.7333 86.9631 13.84C86.0698 12.9333 85.6231 11.7067 85.6231 10.16C85.6231 9.16 85.8231 8.28 86.2231 7.52C86.6231 6.74667 87.1698 6.15333 87.8631 5.74C88.5698 5.31333 89.3831 5.1 90.3031 5.1C91.6231 5.1 92.6565 5.52667 93.4031 6.38C94.1498 7.22 94.5231 8.38 94.5231 9.86V10.48H87.2031C87.2565 11.5867 87.5765 12.4333 88.1631 13.02C88.7498 13.5933 89.5631 13.88 90.6031 13.88C91.1898 13.88 91.7498 13.7933 92.2831 13.62C92.8165 13.4333 93.3231 13.1333 93.8031 12.72L94.3631 13.86C93.9231 14.2733 93.3631 14.6 92.6831 14.84C92.0031 15.0667 91.3098 15.18 90.6031 15.18ZM90.3431 6.3C89.4231 6.3 88.6965 6.58667 88.1631 7.16C87.6298 7.73333 87.3165 8.48667 87.2231 9.42H93.1231C93.0831 8.43333 92.8231 7.66667 92.3431 7.12C91.8765 6.57333 91.2098 6.3 90.3431 6.3ZM105.064 15.18C104.398 15.18 103.798 15.0533 103.264 14.8C102.744 14.5333 102.331 14.1733 102.024 13.72C101.718 13.2667 101.564 12.76 101.564 12.2C101.564 11.4933 101.744 10.9333 102.104 10.52C102.478 10.1067 103.084 9.81333 103.924 9.64C104.778 9.45333 105.938 9.36 107.404 9.36H108.044V8.74C108.044 7.91333 107.871 7.32 107.524 6.96C107.191 6.58667 106.651 6.4 105.904 6.4C105.318 6.4 104.751 6.48667 104.204 6.66C103.658 6.82 103.098 7.08667 102.524 7.46L101.964 6.28C102.471 5.92 103.084 5.63333 103.804 5.42C104.538 5.20667 105.238 5.1 105.904 5.1C107.158 5.1 108.084 5.40667 108.684 6.02C109.298 6.63333 109.604 7.58667 109.604 8.88V15H108.084V13.32C107.831 13.8933 107.438 14.3467 106.904 14.68C106.384 15.0133 105.771 15.18 105.064 15.18ZM105.324 13.96C106.124 13.96 106.778 13.6867 107.284 13.14C107.791 12.58 108.044 11.8733 108.044 11.02V10.42H107.424C106.344 10.42 105.491 10.4733 104.864 10.58C104.251 10.6733 103.818 10.8467 103.564 11.1C103.324 11.34 103.204 11.6733 103.204 12.1C103.204 12.6467 103.391 13.0933 103.764 13.44C104.151 13.7867 104.671 13.96 105.324 13.96ZM112.61 15V5.28H114.19V6.94C114.51 6.32667 114.963 5.86667 115.55 5.56C116.137 5.25333 116.797 5.1 117.53 5.1C119.837 5.1 120.99 6.38 120.99 8.94V15H119.37V9.04C119.37 8.13333 119.19 7.47333 118.83 7.06C118.483 6.63333 117.923 6.42 117.15 6.42C116.257 6.42 115.543 6.7 115.01 7.26C114.49 7.80667 114.23 8.54 114.23 9.46V15H112.61ZM132.174 15.18C131.507 15.18 130.907 15.0533 130.374 14.8C129.854 14.5333 129.44 14.1733 129.134 13.72C128.827 13.2667 128.674 12.76 128.674 12.2C128.674 11.4933 128.854 10.9333 129.214 10.52C129.587 10.1067 130.194 9.81333 131.034 9.64C131.887 9.45333 133.047 9.36 134.514 9.36H135.154V8.74C135.154 7.91333 134.98 7.32 134.634 6.96C134.3 6.58667 133.76 6.4 133.014 6.4C132.427 6.4 131.86 6.48667 131.314 6.66C130.767 6.82 130.207 7.08667 129.634 7.46L129.074 6.28C129.58 5.92 130.194 5.63333 130.914 5.42C131.647 5.20667 132.347 5.1 133.014 5.1C134.267 5.1 135.194 5.40667 135.794 6.02C136.407 6.63333 136.714 7.58667 136.714 8.88V15H135.194V13.32C134.94 13.8933 134.547 14.3467 134.014 14.68C133.494 15.0133 132.88 15.18 132.174 15.18ZM132.434 13.96C133.234 13.96 133.887 13.6867 134.394 13.14C134.9 12.58 135.154 11.8733 135.154 11.02V10.42H134.534C133.454 10.42 132.6 10.4733 131.974 10.58C131.36 10.6733 130.927 10.8467 130.674 11.1C130.434 11.34 130.314 11.6733 130.314 12.1C130.314 12.6467 130.5 13.0933 130.874 13.44C131.26 13.7867 131.78 13.96 132.434 13.96ZM143.839 15.18C142.866 15.18 142.026 14.9733 141.319 14.56C140.613 14.1333 140.066 13.54 139.679 12.78C139.306 12.0067 139.119 11.1067 139.119 10.08C139.119 8.53333 139.539 7.32 140.379 6.44C141.219 5.54667 142.373 5.1 143.839 5.1C144.439 5.1 145.033 5.20667 145.619 5.42C146.206 5.63333 146.693 5.93333 147.079 6.32L146.519 7.5C146.133 7.12667 145.706 6.85333 145.239 6.68C144.786 6.50667 144.353 6.42 143.939 6.42C142.926 6.42 142.146 6.74 141.599 7.38C141.053 8.00667 140.779 8.91333 140.779 10.1C140.779 11.26 141.053 12.18 141.599 12.86C142.146 13.5267 142.926 13.86 143.939 13.86C144.353 13.86 144.786 13.7733 145.239 13.6C145.706 13.4267 146.133 13.1467 146.519 12.76L147.079 13.94C146.693 14.3267 146.199 14.6333 145.599 14.86C145.013 15.0733 144.426 15.18 143.839 15.18ZM152.902 15.18C151.928 15.18 151.088 14.9733 150.382 14.56C149.675 14.1333 149.128 13.54 148.742 12.78C148.368 12.0067 148.182 11.1067 148.182 10.08C148.182 8.53333 148.602 7.32 149.442 6.44C150.282 5.54667 151.435 5.1 152.902 5.1C153.502 5.1 154.095 5.20667 154.682 5.42C155.268 5.63333 155.755 5.93333 156.142 6.32L155.582 7.5C155.195 7.12667 154.768 6.85333 154.302 6.68C153.848 6.50667 153.415 6.42 153.002 6.42C151.988 6.42 151.208 6.74 150.662 7.38C150.115 8.00667 149.842 8.91333 149.842 10.1C149.842 11.26 150.115 12.18 150.662 12.86C151.208 13.5267 151.988 13.86 153.002 13.86C153.415 13.86 153.848 13.7733 154.302 13.6C154.768 13.4267 155.195 13.1467 155.582 12.76L156.142 13.94C155.755 14.3267 155.262 14.6333 154.662 14.86C154.075 15.0733 153.488 15.18 152.902 15.18ZM161.884 15.18C160.938 15.18 160.118 14.9733 159.424 14.56C158.731 14.1467 158.191 13.5667 157.804 12.82C157.431 12.06 157.244 11.1667 157.244 10.14C157.244 9.11333 157.431 8.22667 157.804 7.48C158.191 6.72 158.731 6.13333 159.424 5.72C160.118 5.30667 160.938 5.1 161.884 5.1C162.818 5.1 163.631 5.30667 164.324 5.72C165.031 6.13333 165.571 6.72 165.944 7.48C166.331 8.22667 166.524 9.11333 166.524 10.14C166.524 11.1667 166.331 12.06 165.944 12.82C165.571 13.5667 165.031 14.1467 164.324 14.56C163.631 14.9733 162.818 15.18 161.884 15.18ZM161.884 13.88C162.791 13.88 163.518 13.56 164.064 12.92C164.611 12.2667 164.884 11.34 164.884 10.14C164.884 8.92667 164.611 8 164.064 7.36C163.518 6.72 162.791 6.4 161.884 6.4C160.964 6.4 160.231 6.72 159.684 7.36C159.151 8 158.884 8.92667 158.884 10.14C158.884 11.34 159.151 12.2667 159.684 12.92C160.231 13.56 160.964 13.88 161.884 13.88ZM172.398 15.18C170.064 15.18 168.898 13.8933 168.898 11.32V5.28H170.518V11.3C170.518 12.1667 170.691 12.8067 171.038 13.22C171.398 13.6333 171.958 13.84 172.717 13.84C173.544 13.84 174.218 13.5667 174.738 13.02C175.258 12.46 175.518 11.72 175.518 10.8V5.28H177.138V15H175.558V13.36C175.251 13.9467 174.818 14.4 174.258 14.72C173.711 15.0267 173.091 15.18 172.398 15.18ZM180.168 15V5.28H181.748V6.94C182.068 6.32667 182.522 5.86667 183.108 5.56C183.695 5.25333 184.355 5.1 185.088 5.1C187.395 5.1 188.548 6.38 188.548 8.94V15H186.928V9.04C186.928 8.13333 186.748 7.47333 186.388 7.06C186.042 6.63333 185.482 6.42 184.708 6.42C183.815 6.42 183.102 6.7 182.568 7.26C182.048 7.80667 181.788 8.54 181.788 9.46V15H180.168ZM195.436 15.18C194.289 15.18 193.429 14.88 192.856 14.28C192.282 13.6667 191.996 12.7867 191.996 11.64V6.54H190.096V5.28H191.996V2.3H193.616V5.28H196.696V6.54H193.616V11.48C193.616 12.24 193.776 12.82 194.096 13.22C194.416 13.6067 194.936 13.8 195.656 13.8C195.869 13.8 196.082 13.7733 196.296 13.72C196.509 13.6667 196.702 13.6133 196.876 13.56L197.156 14.8C196.982 14.8933 196.729 14.98 196.396 15.06C196.062 15.14 195.742 15.18 195.436 15.18ZM200.687 11.32V10.74C200.687 10.06 200.814 9.42667 201.067 8.84C201.32 8.24 201.767 7.56667 202.407 6.82C202.914 6.23333 203.267 5.73333 203.467 5.32C203.667 4.90667 203.767 4.46667 203.767 4C203.767 3.44 203.567 3 203.167 2.68C202.767 2.34667 202.214 2.18 201.507 2.18C200.774 2.18 200.094 2.31333 199.467 2.58C198.84 2.84667 198.247 3.24667 197.687 3.78L197.087 2.5C197.607 1.96667 198.267 1.54 199.067 1.22C199.867 0.886666 200.707 0.719999 201.587 0.719999C202.734 0.719999 203.66 1.01333 204.367 1.6C205.074 2.17333 205.427 2.93333 205.427 3.88C205.427 4.50667 205.287 5.09333 205.007 5.64C204.74 6.18667 204.267 6.82 203.587 7.54C202.96 8.20667 202.514 8.79333 202.247 9.3C201.994 9.79333 201.834 10.3 201.767 10.82L201.727 11.32H200.687ZM200.187 15V12.96H202.227V15H200.187Z" fill="black" fill-opacity="0.45"/>
<path d="M212.691 15V0.899999H218.531C220.051 0.899999 221.224 1.26667 222.051 2C222.877 2.72 223.291 3.73333 223.291 5.04C223.291 6.09333 223.011 6.96 222.451 7.64C221.891 8.30667 221.097 8.75333 220.071 8.98C220.711 9.19333 221.251 9.70667 221.691 10.52L224.131 15H221.851L219.411 10.5C219.131 9.98 218.804 9.63333 218.431 9.46C218.071 9.27333 217.604 9.18 217.031 9.18H214.771V15H212.691ZM214.771 7.62H218.191C220.244 7.62 221.271 6.77333 221.271 5.08C221.271 3.4 220.244 2.56 218.191 2.56H214.771V7.62ZM230.352 15.18C228.752 15.18 227.492 14.7333 226.572 13.84C225.652 12.9333 225.192 11.7 225.192 10.14C225.192 9.14 225.392 8.26 225.792 7.5C226.205 6.72667 226.772 6.12667 227.492 5.7C228.212 5.27333 229.038 5.06 229.972 5.06C231.318 5.06 232.378 5.49333 233.152 6.36C233.925 7.21333 234.312 8.39333 234.312 9.9V10.58H227.152C227.298 12.6067 228.372 13.62 230.372 13.62C230.932 13.62 231.478 13.5333 232.012 13.36C232.558 13.1867 233.072 12.9 233.552 12.5L234.152 13.9C233.712 14.3 233.145 14.6133 232.452 14.84C231.758 15.0667 231.058 15.18 230.352 15.18ZM230.052 6.48C229.212 6.48 228.545 6.74 228.052 7.26C227.558 7.78 227.258 8.47333 227.152 9.34H232.612C232.572 8.43333 232.332 7.73333 231.892 7.24C231.452 6.73333 230.838 6.48 230.052 6.48ZM240.934 18.78C240.054 18.78 239.234 18.6733 238.474 18.46C237.714 18.26 237.04 17.94 236.454 17.5L237.074 16.06C237.66 16.46 238.26 16.7533 238.874 16.94C239.487 17.1267 240.127 17.22 240.794 17.22C242.66 17.22 243.594 16.2867 243.594 14.42V12.88C243.314 13.4667 242.874 13.9267 242.274 14.26C241.687 14.5933 241.027 14.76 240.294 14.76C239.414 14.76 238.647 14.56 237.994 14.16C237.34 13.7467 236.834 13.18 236.474 12.46C236.114 11.7267 235.934 10.8733 235.934 9.9C235.934 8.94 236.114 8.1 236.474 7.38C236.834 6.64667 237.34 6.08 237.994 5.68C238.647 5.26667 239.414 5.06 240.294 5.06C241.04 5.06 241.707 5.22667 242.294 5.56C242.88 5.89333 243.314 6.35333 243.594 6.94V5.24H245.554V14.18C245.554 15.7133 245.16 16.86 244.374 17.62C243.587 18.3933 242.44 18.78 240.934 18.78ZM240.774 13.18C241.627 13.18 242.307 12.8867 242.814 12.3C243.32 11.7133 243.574 10.9133 243.574 9.9C243.574 8.88667 243.32 8.09333 242.814 7.52C242.307 6.93333 241.627 6.64 240.774 6.64C239.92 6.64 239.24 6.93333 238.734 7.52C238.227 8.09333 237.974 8.88667 237.974 9.9C237.974 10.9133 238.227 11.7133 238.734 12.3C239.24 12.8867 239.92 13.18 240.774 13.18ZM248.209 2.98V0.879999H250.569V2.98H248.209ZM248.389 15V5.24H250.409V15H248.389ZM256.672 15.18C255.872 15.18 255.125 15.08 254.432 14.88C253.739 14.6667 253.159 14.3733 252.692 14L253.272 12.64C253.765 12.9867 254.305 13.2533 254.892 13.44C255.492 13.6267 256.092 13.72 256.692 13.72C257.399 13.72 257.932 13.5933 258.292 13.34C258.652 13.0867 258.832 12.7467 258.832 12.32C258.832 11.9733 258.712 11.7067 258.472 11.52C258.232 11.32 257.872 11.1667 257.392 11.06L255.492 10.68C253.812 10.3333 252.972 9.46667 252.972 8.08C252.972 7.16 253.339 6.42667 254.072 5.88C254.805 5.33333 255.765 5.06 256.952 5.06C257.632 5.06 258.279 5.16 258.892 5.36C259.519 5.56 260.039 5.86 260.452 6.26L259.872 7.62C259.472 7.27333 259.012 7.00667 258.492 6.82C257.972 6.63333 257.459 6.54 256.952 6.54C256.259 6.54 255.732 6.67333 255.372 6.94C255.012 7.19333 254.832 7.54 254.832 7.98C254.832 8.64667 255.272 9.07333 256.152 9.26L258.052 9.64C258.919 9.81333 259.572 10.1067 260.012 10.52C260.465 10.9333 260.692 11.4933 260.692 12.2C260.692 13.1333 260.325 13.8667 259.592 14.4C258.859 14.92 257.885 15.18 256.672 15.18ZM267.002 15.18C265.775 15.18 264.862 14.8667 264.262 14.24C263.662 13.6133 263.362 12.7067 263.362 11.52V6.8H261.462V5.24H263.362V2.3H265.382V5.24H268.402V6.8H265.382V11.36C265.382 12.0667 265.529 12.6 265.822 12.96C266.129 13.32 266.622 13.5 267.302 13.5C267.515 13.5 267.722 13.48 267.922 13.44C268.122 13.3867 268.322 13.3267 268.522 13.26L268.842 14.78C268.642 14.9 268.362 14.9933 268.002 15.06C267.655 15.14 267.322 15.18 267.002 15.18ZM274.629 15.18C273.029 15.18 271.769 14.7333 270.849 13.84C269.929 12.9333 269.469 11.7 269.469 10.14C269.469 9.14 269.669 8.26 270.069 7.5C270.482 6.72667 271.049 6.12667 271.769 5.7C272.489 5.27333 273.316 5.06 274.249 5.06C275.596 5.06 276.656 5.49333 277.429 6.36C278.202 7.21333 278.589 8.39333 278.589 9.9V10.58H271.429C271.576 12.6067 272.649 13.62 274.649 13.62C275.209 13.62 275.756 13.5333 276.289 13.36C276.836 13.1867 277.349 12.9 277.829 12.5L278.429 13.9C277.989 14.3 277.422 14.6133 276.729 14.84C276.036 15.0667 275.336 15.18 274.629 15.18ZM274.329 6.48C273.489 6.48 272.822 6.74 272.329 7.26C271.836 7.78 271.536 8.47333 271.429 9.34H276.889C276.849 8.43333 276.609 7.73333 276.169 7.24C275.729 6.73333 275.116 6.48 274.329 6.48ZM280.791 15V5.24H282.751V6.98C283.258 5.82 284.311 5.17333 285.911 5.04L286.571 5L286.711 6.72L285.491 6.84C283.718 7.01333 282.831 7.92667 282.831 9.58V15H280.791Z" fill="#007438"/>
<path d="M211.051 17.06H286.831V17.84H211.051V17.06Z" fill="#007438"/>
</svg>
