<svg width="26" height="26" viewBox="0 0 26 26" fill="none" xmlns="http://www.w3.org/2000/svg">
<path d="M1.3153 10.3636C4.34109 16.9576 9.72512 22.2002 16.4188 25.0423L17.4919 25.5207C19.9469 26.6152 22.8326 25.7838 24.3299 23.5507L25.7321 21.4595C26.1881 20.7795 26.0493 19.8637 25.4124 19.3496L20.6569 15.511C19.9586 14.9471 18.9315 15.0786 18.397 15.7999L16.926 17.7862C13.1512 15.923 10.0864 12.8565 8.22438 9.07947L10.2094 7.60751C10.9304 7.07287 11.0617 6.04516 10.4981 5.34628L6.66172 0.587948C6.14803 -0.0491626 5.23306 -0.188139 4.55355 0.26775L2.44914 1.67964C0.203413 3.18632 -0.622948 6.09769 0.496061 8.56056L1.31407 10.361L1.3153 10.3636Z" fill="#007438"/>
</svg>
