<svg width="451" height="204" viewBox="0 0 451 204" fill="none" xmlns="http://www.w3.org/2000/svg">
<path d="M25.425 18.635L15.21 38.165V50H11.115V38.165L0.855 18.635H5.4L13.14 34.52L20.88 18.635H25.425ZM42.7493 50.405C40.4393 50.405 38.3393 49.88 36.4493 48.83C34.5893 47.78 33.1193 46.295 32.0393 44.375C30.9893 42.425 30.4643 40.175 30.4643 37.625C30.4643 35.105 31.0043 32.885 32.0843 30.965C33.1943 29.015 34.6943 27.53 36.5843 26.51C38.4743 25.46 40.5893 24.935 42.9293 24.935C45.2693 24.935 47.3843 25.46 49.2743 26.51C51.1643 27.53 52.6493 29 53.7293 30.92C54.8393 32.84 55.3943 35.075 55.3943 37.625C55.3943 40.175 54.8243 42.425 53.6843 44.375C52.5743 46.295 51.0593 47.78 49.1393 48.83C47.2193 49.88 45.0893 50.405 42.7493 50.405ZM42.7493 46.805C44.2193 46.805 45.5993 46.46 46.8893 45.77C48.1793 45.08 49.2143 44.045 49.9943 42.665C50.8043 41.285 51.2093 39.605 51.2093 37.625C51.2093 35.645 50.8193 33.965 50.0393 32.585C49.2593 31.205 48.2393 30.185 46.9793 29.525C45.7193 28.835 44.3543 28.49 42.8843 28.49C41.3843 28.49 40.0043 28.835 38.7443 29.525C37.5143 30.185 36.5243 31.205 35.7743 32.585C35.0243 33.965 34.6493 35.645 34.6493 37.625C34.6493 39.635 35.0093 41.33 35.7293 42.71C36.4793 44.09 37.4693 45.125 38.6993 45.815C39.9293 46.475 41.2793 46.805 42.7493 46.805ZM84.8985 25.34V50H80.8035V46.355C80.0235 47.615 78.9285 48.605 77.5185 49.325C76.1385 50.015 74.6085 50.36 72.9285 50.36C71.0085 50.36 69.2835 49.97 67.7535 49.19C66.2235 48.38 65.0085 47.18 64.1085 45.59C63.2385 44 62.8035 42.065 62.8035 39.785V25.34H66.8535V39.245C66.8535 41.675 67.4685 43.55 68.6985 44.87C69.9285 46.16 71.6085 46.805 73.7385 46.805C75.9285 46.805 77.6535 46.13 78.9135 44.78C80.1735 43.43 80.8035 41.465 80.8035 38.885V25.34H84.8985ZM98.1577 29.345C98.8777 27.935 99.8977 26.84 101.218 26.06C102.568 25.28 104.203 24.89 106.123 24.89V29.12H105.043C100.453 29.12 98.1577 31.61 98.1577 36.59V50H94.0627V25.34H98.1577V29.345ZM151.107 27.725C150.237 25.895 148.977 24.485 147.327 23.495C145.677 22.475 143.757 21.965 141.567 21.965C139.377 21.965 137.397 22.475 135.627 23.495C133.887 24.485 132.507 25.925 131.487 27.815C130.497 29.675 130.002 31.835 130.002 34.295C130.002 36.755 130.497 38.915 131.487 40.775C132.507 42.635 133.887 44.075 135.627 45.095C137.397 46.085 139.377 46.58 141.567 46.58C144.627 46.58 147.147 45.665 149.127 43.835C151.107 42.005 152.262 39.53 152.592 36.41H140.082V33.08H156.957V36.23C156.717 38.81 155.907 41.18 154.527 43.34C153.147 45.47 151.332 47.165 149.082 48.425C146.832 49.655 144.327 50.27 141.567 50.27C138.657 50.27 136.002 49.595 133.602 48.245C131.202 46.865 129.297 44.96 127.887 42.53C126.507 40.1 125.817 37.355 125.817 34.295C125.817 31.235 126.507 28.49 127.887 26.06C129.297 23.6 131.202 21.695 133.602 20.345C136.002 18.965 138.657 18.275 141.567 18.275C144.897 18.275 147.837 19.1 150.387 20.75C152.967 22.4 154.842 24.725 156.012 27.725H151.107ZM163.091 37.58C163.091 35.06 163.601 32.855 164.621 30.965C165.641 29.045 167.036 27.56 168.806 26.51C170.606 25.46 172.601 24.935 174.791 24.935C176.951 24.935 178.826 25.4 180.416 26.33C182.006 27.26 183.191 28.43 183.971 29.84V25.34H188.111V50H183.971V45.41C183.161 46.85 181.946 48.05 180.326 49.01C178.736 49.94 176.876 50.405 174.746 50.405C172.556 50.405 170.576 49.865 168.806 48.785C167.036 47.705 165.641 46.19 164.621 44.24C163.601 42.29 163.091 40.07 163.091 37.58ZM183.971 37.625C183.971 35.765 183.596 34.145 182.846 32.765C182.096 31.385 181.076 30.335 179.786 29.615C178.526 28.865 177.131 28.49 175.601 28.49C174.071 28.49 172.676 28.85 171.416 29.57C170.156 30.29 169.151 31.34 168.401 32.72C167.651 34.1 167.276 35.72 167.276 37.58C167.276 39.47 167.651 41.12 168.401 42.53C169.151 43.91 170.156 44.975 171.416 45.725C172.676 46.445 174.071 46.805 175.601 46.805C177.131 46.805 178.526 46.445 179.786 45.725C181.076 44.975 182.096 43.91 182.846 42.53C183.596 41.12 183.971 39.485 183.971 37.625ZM202.276 28.715V43.25C202.276 44.45 202.531 45.305 203.041 45.815C203.551 46.295 204.436 46.535 205.696 46.535H208.711V50H205.021C202.741 50 201.031 49.475 199.891 48.425C198.751 47.375 198.181 45.65 198.181 43.25V28.715H194.986V25.34H198.181V19.13H202.276V25.34H208.711V28.715H202.276ZM238.423 36.725C238.423 37.505 238.378 38.33 238.288 39.2H218.578C218.728 41.63 219.553 43.535 221.053 44.915C222.583 46.265 224.428 46.94 226.588 46.94C228.358 46.94 229.828 46.535 230.998 45.725C232.198 44.885 233.038 43.775 233.518 42.395H237.928C237.268 44.765 235.948 46.7 233.968 48.2C231.988 49.67 229.528 50.405 226.588 50.405C224.248 50.405 222.148 49.88 220.288 48.83C218.458 47.78 217.018 46.295 215.968 44.375C214.918 42.425 214.393 40.175 214.393 37.625C214.393 35.075 214.903 32.84 215.923 30.92C216.943 29 218.368 27.53 220.198 26.51C222.058 25.46 224.188 24.935 226.588 24.935C228.928 24.935 230.998 25.445 232.798 26.465C234.598 27.485 235.978 28.895 236.938 30.695C237.928 32.465 238.423 34.475 238.423 36.725ZM234.193 35.87C234.193 34.31 233.848 32.975 233.158 31.865C232.468 30.725 231.523 29.87 230.323 29.3C229.153 28.7 227.848 28.4 226.408 28.4C224.338 28.4 222.568 29.06 221.098 30.38C219.658 31.7 218.833 33.53 218.623 35.87H234.193ZM278.928 25.34L271.233 50H267.003L261.063 30.425L255.123 50H250.893L243.153 25.34H247.338L253.008 46.04L259.128 25.34H263.313L269.298 46.085L274.878 25.34H278.928ZM283.712 37.58C283.712 35.06 284.222 32.855 285.242 30.965C286.262 29.045 287.657 27.56 289.427 26.51C291.227 25.46 293.222 24.935 295.412 24.935C297.572 24.935 299.447 25.4 301.037 26.33C302.627 27.26 303.812 28.43 304.592 29.84V25.34H308.732V50H304.592V45.41C303.782 46.85 302.567 48.05 300.947 49.01C299.357 49.94 297.497 50.405 295.367 50.405C293.177 50.405 291.197 49.865 289.427 48.785C287.657 47.705 286.262 46.19 285.242 44.24C284.222 42.29 283.712 40.07 283.712 37.58ZM304.592 37.625C304.592 35.765 304.217 34.145 303.467 32.765C302.717 31.385 301.697 30.335 300.407 29.615C299.147 28.865 297.752 28.49 296.222 28.49C294.692 28.49 293.297 28.85 292.037 29.57C290.777 30.29 289.772 31.34 289.022 32.72C288.272 34.1 287.897 35.72 287.897 37.58C287.897 39.47 288.272 41.12 289.022 42.53C289.772 43.91 290.777 44.975 292.037 45.725C293.297 46.445 294.692 46.805 296.222 46.805C297.752 46.805 299.147 46.445 300.407 45.725C301.697 44.975 302.717 43.91 303.467 42.53C304.217 41.12 304.592 39.485 304.592 37.625ZM339.143 25.34L324.293 61.61H320.062L324.923 49.73L314.978 25.34H319.523L327.263 45.32L334.913 25.34H339.143ZM364.751 28.715V43.25C364.751 44.45 365.006 45.305 365.516 45.815C366.026 46.295 366.911 46.535 368.171 46.535H371.186V50H367.496C365.216 50 363.506 49.475 362.366 48.425C361.226 47.375 360.656 45.65 360.656 43.25V28.715H357.461V25.34H360.656V19.13H364.751V25.34H371.186V28.715H364.751ZM389.153 50.405C386.843 50.405 384.743 49.88 382.853 48.83C380.993 47.78 379.523 46.295 378.443 44.375C377.393 42.425 376.868 40.175 376.868 37.625C376.868 35.105 377.408 32.885 378.488 30.965C379.598 29.015 381.098 27.53 382.988 26.51C384.878 25.46 386.993 24.935 389.333 24.935C391.673 24.935 393.788 25.46 395.678 26.51C397.568 27.53 399.053 29 400.133 30.92C401.243 32.84 401.798 35.075 401.798 37.625C401.798 40.175 401.228 42.425 400.088 44.375C398.978 46.295 397.463 47.78 395.543 48.83C393.623 49.88 391.493 50.405 389.153 50.405ZM389.153 46.805C390.623 46.805 392.003 46.46 393.293 45.77C394.583 45.08 395.618 44.045 396.398 42.665C397.208 41.285 397.613 39.605 397.613 37.625C397.613 35.645 397.223 33.965 396.443 32.585C395.663 31.205 394.643 30.185 393.383 29.525C392.123 28.835 390.758 28.49 389.288 28.49C387.788 28.49 386.408 28.835 385.148 29.525C383.918 30.185 382.928 31.205 382.178 32.585C381.428 33.965 381.053 35.645 381.053 37.625C381.053 39.635 381.413 41.33 382.133 42.71C382.883 44.09 383.873 45.125 385.103 45.815C386.333 46.475 387.683 46.805 389.153 46.805ZM23.76 96.4C23.19 95.35 22.365 94.555 21.285 94.015C20.235 93.445 18.99 93.16 17.55 93.16C15.06 93.16 13.065 93.985 11.565 95.635C10.065 97.255 9.315 99.43 9.315 102.16C9.315 105.07 10.095 107.35 11.655 109C13.245 110.62 15.42 111.43 18.18 111.43C20.07 111.43 21.66 110.95 22.95 109.99C24.27 109.03 25.23 107.65 25.83 105.85H16.065V100.18H32.805V107.335C32.235 109.255 31.26 111.04 29.88 112.69C28.53 114.34 26.805 115.675 24.705 116.695C22.605 117.715 20.235 118.225 17.595 118.225C14.475 118.225 11.685 117.55 9.225 116.2C6.795 114.82 4.89 112.915 3.51 110.485C2.16 108.055 1.485 105.28 1.485 102.16C1.485 99.04 2.16 96.265 3.51 93.835C4.89 91.375 6.795 89.47 9.225 88.12C11.655 86.74 14.43 86.05 17.55 86.05C21.33 86.05 24.51 86.965 27.09 88.795C29.7 90.625 31.425 93.16 32.265 96.4H23.76ZM47.0123 84.7V118H39.3173V84.7H47.0123ZM66.2688 118.36C63.8088 118.36 61.5888 117.835 59.6088 116.785C57.6588 115.735 56.1138 114.235 54.9738 112.285C53.8638 110.335 53.3088 108.055 53.3088 105.445C53.3088 102.865 53.8788 100.6 55.0188 98.65C56.1588 96.67 57.7188 95.155 59.6988 94.105C61.6788 93.055 63.8988 92.53 66.3588 92.53C68.8188 92.53 71.0388 93.055 73.0188 94.105C74.9988 95.155 76.5588 96.67 77.6988 98.65C78.8388 100.6 79.4088 102.865 79.4088 105.445C79.4088 108.025 78.8238 110.305 77.6538 112.285C76.5138 114.235 74.9388 115.735 72.9288 116.785C70.9488 117.835 68.7288 118.36 66.2688 118.36ZM66.2688 111.7C67.7388 111.7 68.9838 111.16 70.0038 110.08C71.0538 109 71.5788 107.455 71.5788 105.445C71.5788 103.435 71.0688 101.89 70.0488 100.81C69.0588 99.73 67.8288 99.19 66.3588 99.19C64.8588 99.19 63.6138 99.73 62.6238 100.81C61.6338 101.86 61.1388 103.405 61.1388 105.445C61.1388 107.455 61.6188 109 62.5788 110.08C63.5688 111.16 64.7988 111.7 66.2688 111.7ZM93.4362 96.445C94.1562 95.275 95.1912 94.33 96.5412 93.61C97.8912 92.89 99.4362 92.53 101.176 92.53C103.246 92.53 105.121 93.055 106.801 94.105C108.481 95.155 109.801 96.655 110.761 98.605C111.751 100.555 112.246 102.82 112.246 105.4C112.246 107.98 111.751 110.26 110.761 112.24C109.801 114.19 108.481 115.705 106.801 116.785C105.121 117.835 103.246 118.36 101.176 118.36C99.4062 118.36 97.8612 118.015 96.5412 117.325C95.2212 116.605 94.1862 115.66 93.4362 114.49V118H85.7412V84.7H93.4362V96.445ZM104.416 105.4C104.416 103.48 103.876 101.98 102.796 100.9C101.746 99.79 100.441 99.235 98.8812 99.235C97.3512 99.235 96.0462 99.79 94.9662 100.9C93.9162 102.01 93.3912 103.525 93.3912 105.445C93.3912 107.365 93.9162 108.88 94.9662 109.99C96.0462 111.1 97.3512 111.655 98.8812 111.655C100.411 111.655 101.716 111.1 102.796 109.99C103.876 108.85 104.416 107.32 104.416 105.4ZM117.003 105.4C117.003 102.82 117.483 100.555 118.443 98.605C119.433 96.655 120.768 95.155 122.448 94.105C124.128 93.055 126.003 92.53 128.073 92.53C129.843 92.53 131.388 92.89 132.708 93.61C134.058 94.33 135.093 95.275 135.813 96.445V92.89H143.508V118H135.813V114.445C135.063 115.615 134.013 116.56 132.663 117.28C131.343 118 129.798 118.36 128.028 118.36C125.988 118.36 124.128 117.835 122.448 116.785C120.768 115.705 119.433 114.19 118.443 112.24C117.483 110.26 117.003 107.98 117.003 105.4ZM135.813 105.445C135.813 103.525 135.273 102.01 134.193 100.9C133.143 99.79 131.853 99.235 130.323 99.235C128.793 99.235 127.488 99.79 126.408 100.9C125.358 101.98 124.833 103.48 124.833 105.4C124.833 107.32 125.358 108.85 126.408 109.99C127.488 111.1 128.793 111.655 130.323 111.655C131.853 111.655 133.143 111.1 134.193 109.99C135.273 108.88 135.813 107.365 135.813 105.445ZM159.02 84.7V118H151.325V84.7H159.02ZM199.198 86.41V92.575H186.328V99.235H195.958V105.22H186.328V118H178.633V86.41H199.198ZM209.362 90.28C208.012 90.28 206.902 89.89 206.032 89.11C205.192 88.3 204.772 87.31 204.772 86.14C204.772 84.94 205.192 83.95 206.032 83.17C206.902 82.36 208.012 81.955 209.362 81.955C210.682 81.955 211.762 82.36 212.602 83.17C213.472 83.95 213.907 84.94 213.907 86.14C213.907 87.31 213.472 88.3 212.602 89.11C211.762 89.89 210.682 90.28 209.362 90.28ZM213.187 92.89V118H205.492V92.89H213.187ZM236.314 92.62C239.254 92.62 241.594 93.58 243.334 95.5C245.104 97.39 245.989 100 245.989 103.33V118H238.339V104.365C238.339 102.685 237.904 101.38 237.034 100.45C236.164 99.52 234.994 99.055 233.524 99.055C232.054 99.055 230.884 99.52 230.014 100.45C229.144 101.38 228.709 102.685 228.709 104.365V118H221.014V92.89H228.709V96.22C229.489 95.11 230.539 94.24 231.859 93.61C233.179 92.95 234.664 92.62 236.314 92.62ZM252.056 105.4C252.056 102.82 252.536 100.555 253.496 98.605C254.486 96.655 255.821 95.155 257.501 94.105C259.181 93.055 261.056 92.53 263.126 92.53C264.896 92.53 266.441 92.89 267.761 93.61C269.111 94.33 270.146 95.275 270.866 96.445V92.89H278.561V118H270.866V114.445C270.116 115.615 269.066 116.56 267.716 117.28C266.396 118 264.851 118.36 263.081 118.36C261.041 118.36 259.181 117.835 257.501 116.785C255.821 115.705 254.486 114.19 253.496 112.24C252.536 110.26 252.056 107.98 252.056 105.4ZM270.866 105.445C270.866 103.525 270.326 102.01 269.246 100.9C268.196 99.79 266.906 99.235 265.376 99.235C263.846 99.235 262.541 99.79 261.461 100.9C260.411 101.98 259.886 103.48 259.886 105.4C259.886 107.32 260.411 108.85 261.461 109.99C262.541 111.1 263.846 111.655 265.376 111.655C266.906 111.655 268.196 111.1 269.246 109.99C270.326 108.88 270.866 107.365 270.866 105.445ZM301.678 92.62C304.618 92.62 306.958 93.58 308.698 95.5C310.468 97.39 311.353 100 311.353 103.33V118H303.703V104.365C303.703 102.685 303.268 101.38 302.398 100.45C301.528 99.52 300.358 99.055 298.888 99.055C297.418 99.055 296.248 99.52 295.378 100.45C294.508 101.38 294.073 102.685 294.073 104.365V118H286.378V92.89H294.073V96.22C294.853 95.11 295.903 94.24 297.223 93.61C298.543 92.95 300.028 92.62 301.678 92.62ZM317.42 105.445C317.42 102.835 317.945 100.555 318.995 98.605C320.075 96.655 321.56 95.155 323.45 94.105C325.37 93.055 327.56 92.53 330.02 92.53C333.17 92.53 335.795 93.355 337.895 95.005C340.025 96.655 341.42 98.98 342.08 101.98H333.89C333.2 100.06 331.865 99.1 329.885 99.1C328.475 99.1 327.35 99.655 326.51 100.765C325.67 101.845 325.25 103.405 325.25 105.445C325.25 107.485 325.67 109.06 326.51 110.17C327.35 111.25 328.475 111.79 329.885 111.79C331.865 111.79 333.2 110.83 333.89 108.91H342.08C341.42 111.85 340.025 114.16 337.895 115.84C335.765 117.52 333.14 118.36 330.02 118.36C327.56 118.36 325.37 117.835 323.45 116.785C321.56 115.735 320.075 114.235 318.995 112.285C317.945 110.335 317.42 108.055 317.42 105.445ZM352.316 90.28C350.966 90.28 349.856 89.89 348.986 89.11C348.146 88.3 347.726 87.31 347.726 86.14C347.726 84.94 348.146 83.95 348.986 83.17C349.856 82.36 350.966 81.955 352.316 81.955C353.636 81.955 354.716 82.36 355.556 83.17C356.426 83.95 356.861 84.94 356.861 86.14C356.861 87.31 356.426 88.3 355.556 89.11C354.716 89.89 353.636 90.28 352.316 90.28ZM356.141 92.89V118H348.446V92.89H356.141ZM362.438 105.4C362.438 102.82 362.918 100.555 363.878 98.605C364.868 96.655 366.203 95.155 367.883 94.105C369.563 93.055 371.438 92.53 373.508 92.53C375.278 92.53 376.823 92.89 378.143 93.61C379.493 94.33 380.528 95.275 381.248 96.445V92.89H388.943V118H381.248V114.445C380.498 115.615 379.448 116.56 378.098 117.28C376.778 118 375.233 118.36 373.463 118.36C371.423 118.36 369.563 117.835 367.883 116.785C366.203 115.705 364.868 114.19 363.878 112.24C362.918 110.26 362.438 107.98 362.438 105.4ZM381.248 105.445C381.248 103.525 380.708 102.01 379.628 100.9C378.578 99.79 377.288 99.235 375.758 99.235C374.228 99.235 372.923 99.79 371.843 100.9C370.793 101.98 370.268 103.48 370.268 105.4C370.268 107.32 370.793 108.85 371.843 109.99C372.923 111.1 374.228 111.655 375.758 111.655C377.288 111.655 378.578 111.1 379.628 109.99C380.708 108.88 381.248 107.365 381.248 105.445ZM404.455 84.7V118H396.76V84.7H404.455ZM1.665 170.295C1.665 167.235 2.37 164.49 3.78 162.06C5.22 159.63 7.155 157.74 9.585 156.39C12.045 155.01 14.73 154.32 17.64 154.32C20.97 154.32 23.925 155.145 26.505 156.795C29.115 158.415 31.005 160.725 32.175 163.725H26.01C25.2 162.075 24.075 160.845 22.635 160.035C21.195 159.225 19.53 158.82 17.64 158.82C15.57 158.82 13.725 159.285 12.105 160.215C10.485 161.145 9.21 162.48 8.28 164.22C7.38 165.96 6.93 167.985 6.93 170.295C6.93 172.605 7.38 174.63 8.28 176.37C9.21 178.11 10.485 179.46 12.105 180.42C13.725 181.35 15.57 181.815 17.64 181.815C19.53 181.815 21.195 181.41 22.635 180.6C24.075 179.79 25.2 178.56 26.01 176.91H32.175C31.005 179.91 29.115 182.22 26.505 183.84C23.925 185.46 20.97 186.27 17.64 186.27C14.7 186.27 12.015 185.595 9.585 184.245C7.155 182.865 5.22 180.96 3.78 178.53C2.37 176.1 1.665 173.355 1.665 170.295ZM51.1847 186.405C48.8447 186.405 46.7297 185.88 44.8397 184.83C42.9497 183.75 41.4647 182.25 40.3847 180.33C39.3047 178.38 38.7647 176.13 38.7647 173.58C38.7647 171.06 39.3197 168.825 40.4297 166.875C41.5397 164.925 43.0547 163.425 44.9747 162.375C46.8947 161.325 49.0397 160.8 51.4097 160.8C53.7797 160.8 55.9247 161.325 57.8447 162.375C59.7647 163.425 61.2797 164.925 62.3897 166.875C63.4997 168.825 64.0547 171.06 64.0547 173.58C64.0547 176.1 63.4847 178.335 62.3447 180.285C61.2047 182.235 59.6447 183.75 57.6647 184.83C55.7147 185.88 53.5547 186.405 51.1847 186.405ZM51.1847 181.95C52.5047 181.95 53.7347 181.635 54.8747 181.005C56.0447 180.375 56.9897 179.43 57.7097 178.17C58.4297 176.91 58.7897 175.38 58.7897 173.58C58.7897 171.78 58.4447 170.265 57.7547 169.035C57.0647 167.775 56.1497 166.83 55.0097 166.2C53.8697 165.57 52.6397 165.255 51.3197 165.255C49.9997 165.255 48.7697 165.57 47.6297 166.2C46.5197 166.83 45.6347 167.775 44.9747 169.035C44.3147 170.265 43.9847 171.78 43.9847 173.58C43.9847 176.25 44.6597 178.32 46.0097 179.79C47.3897 181.23 49.1147 181.95 51.1847 181.95ZM83.886 160.8C85.836 160.8 87.576 161.205 89.106 162.015C90.666 162.825 91.881 164.025 92.751 165.615C93.621 167.205 94.056 169.125 94.056 171.375V186H88.971V172.14C88.971 169.92 88.416 168.225 87.306 167.055C86.196 165.855 84.681 165.255 82.761 165.255C80.841 165.255 79.311 165.855 78.171 167.055C77.061 168.225 76.506 169.92 76.506 172.14V186H71.376V161.205H76.506V164.04C77.346 163.02 78.411 162.225 79.701 161.655C81.021 161.085 82.416 160.8 83.886 160.8ZM115.36 160.8C117.31 160.8 119.05 161.205 120.58 162.015C122.14 162.825 123.355 164.025 124.225 165.615C125.095 167.205 125.53 169.125 125.53 171.375V186H120.445V172.14C120.445 169.92 119.89 168.225 118.78 167.055C117.67 165.855 116.155 165.255 114.235 165.255C112.315 165.255 110.785 165.855 109.645 167.055C108.535 168.225 107.98 169.92 107.98 172.14V186H102.85V161.205H107.98V164.04C108.82 163.02 109.885 162.225 111.175 161.655C112.495 161.085 113.89 160.8 115.36 160.8ZM157.048 172.995C157.048 173.925 156.988 174.765 156.868 175.515H137.923C138.073 177.495 138.808 179.085 140.128 180.285C141.448 181.485 143.068 182.085 144.988 182.085C147.748 182.085 149.698 180.93 150.838 178.62H156.373C155.623 180.9 154.258 182.775 152.278 184.245C150.328 185.685 147.898 186.405 144.988 186.405C142.618 186.405 140.488 185.88 138.598 184.83C136.738 183.75 135.268 182.25 134.188 180.33C133.138 178.38 132.613 176.13 132.613 173.58C132.613 171.03 133.123 168.795 134.143 166.875C135.193 164.925 136.648 163.425 138.508 162.375C140.398 161.325 142.558 160.8 144.988 160.8C147.328 160.8 149.413 161.31 151.243 162.33C153.073 163.35 154.498 164.79 155.518 166.65C156.538 168.48 157.048 170.595 157.048 172.995ZM151.693 171.375C151.663 169.485 150.988 167.97 149.668 166.83C148.348 165.69 146.713 165.12 144.763 165.12C142.993 165.12 141.478 165.69 140.218 166.83C138.958 167.94 138.208 169.455 137.968 171.375H151.693ZM162.637 173.58C162.637 171.03 163.147 168.795 164.167 166.875C165.217 164.925 166.657 163.425 168.487 162.375C170.317 161.325 172.417 160.8 174.787 160.8C177.787 160.8 180.262 161.52 182.212 162.96C184.192 164.37 185.527 166.395 186.217 169.035H180.682C180.232 167.805 179.512 166.845 178.522 166.155C177.532 165.465 176.287 165.12 174.787 165.12C172.687 165.12 171.007 165.87 169.747 167.37C168.517 168.84 167.902 170.91 167.902 173.58C167.902 176.25 168.517 178.335 169.747 179.835C171.007 181.335 172.687 182.085 174.787 182.085C177.757 182.085 179.722 180.78 180.682 178.17H186.217C185.497 180.69 184.147 182.7 182.167 184.2C180.187 185.67 177.727 186.405 174.787 186.405C172.417 186.405 170.317 185.88 168.487 184.83C166.657 183.75 165.217 182.25 164.167 180.33C163.147 178.38 162.637 176.13 162.637 173.58ZM199.564 165.39V179.115C199.564 180.045 199.774 180.72 200.194 181.14C200.644 181.53 201.394 181.725 202.444 181.725H205.594V186H201.544C199.234 186 197.464 185.46 196.234 184.38C195.004 183.3 194.389 181.545 194.389 179.115V165.39H191.464V161.205H194.389V155.04H199.564V161.205H205.594V165.39H199.564ZM215.182 157.92C214.252 157.92 213.472 157.605 212.842 156.975C212.212 156.345 211.897 155.565 211.897 154.635C211.897 153.705 212.212 152.925 212.842 152.295C213.472 151.665 214.252 151.35 215.182 151.35C216.082 151.35 216.847 151.665 217.477 152.295C218.107 152.925 218.422 153.705 218.422 154.635C218.422 155.565 218.107 156.345 217.477 156.975C216.847 157.605 216.082 157.92 215.182 157.92ZM217.702 161.205V186H212.572V161.205H217.702ZM236.273 181.41L243.293 161.205H248.737L239.288 186H233.168L223.763 161.205H229.252L236.273 181.41ZM257.475 157.92C256.545 157.92 255.765 157.605 255.135 156.975C254.505 156.345 254.19 155.565 254.19 154.635C254.19 153.705 254.505 152.925 255.135 152.295C255.765 151.665 256.545 151.35 257.475 151.35C258.375 151.35 259.14 151.665 259.77 152.295C260.4 152.925 260.715 153.705 260.715 154.635C260.715 155.565 260.4 156.345 259.77 156.975C259.14 157.605 258.375 157.92 257.475 157.92ZM259.995 161.205V186H254.865V161.205H259.995ZM274.965 165.39V179.115C274.965 180.045 275.175 180.72 275.595 181.14C276.045 181.53 276.795 181.725 277.845 181.725H280.995V186H276.945C274.635 186 272.865 185.46 271.635 184.38C270.405 183.3 269.79 181.545 269.79 179.115V165.39H266.865V161.205H269.79V155.04H274.965V161.205H280.995V165.39H274.965ZM310.294 161.205L295.084 197.655H289.774L294.814 185.595L285.049 161.205H290.764L297.739 180.105L304.984 161.205H310.294ZM325.955 153.285L325.055 174.84H318.53L317.63 153.285H325.955ZM321.905 186.36C320.555 186.36 319.445 185.97 318.575 185.19C317.735 184.38 317.315 183.39 317.315 182.22C317.315 181.02 317.735 180.015 318.575 179.205C319.445 178.395 320.555 177.99 321.905 177.99C323.225 177.99 324.305 178.395 325.145 179.205C326.015 180.015 326.45 181.02 326.45 182.22C326.45 183.39 326.015 184.38 325.145 185.19C324.305 185.97 323.225 186.36 321.905 186.36Z" fill="white"/>
</svg>
